<svg aria-hidden="true" style="position: absolute; width: 0; height: 0; overflow: hidden;" version="1.1" xmlns="http://www.w3.org/2000/svg" xmlns:xlink="http://www.w3.org/1999/xlink">
<defs>
<symbol id="icon-keyboard_arrow_down" viewBox="0 0 24 24">
<path d="M7.406 8.578l4.594 4.594 4.594-4.594 1.406 1.406-6 6-6-6z"></path>
</symbol>
<symbol id="icon-person_add_alt_1" viewBox="0 0 24 24">
<path d="M12.984 8.016q0-1.125-0.539-2.039t-1.43-1.453-2.016-0.539-2.016 0.539-1.43 1.453-0.539 2.039q0 1.078 0.539 1.992t1.43 1.453 2.016 0.539 2.016-0.539 1.43-1.453 0.539-1.992zM15 9.984v2.016h3v3h2.016v-3h3v-2.016h-3v-3h-2.016v3h-3zM0.984 18v2.016h16.031v-2.016q0-0.797-0.563-1.43t-1.477-1.125-1.992-0.797-2.133-0.469-1.852-0.164-1.852 0.164-2.133 0.469-1.992 0.797-1.477 1.125-0.563 1.43z"></path>
</symbol>
<symbol id="icon-person" viewBox="0 0 24 24">
<path d="M12 14.016q2.531 0 5.273 1.102t2.742 2.883v2.016h-16.031v-2.016q0-1.781 2.742-2.883t5.273-1.102zM12 12q-1.641 0-2.813-1.172t-1.172-2.813 1.172-2.836 2.813-1.195 2.813 1.195 1.172 2.836-1.172 2.813-2.813 1.172z"></path>
</symbol>
<symbol id="icon-language" viewBox="0 0 24 24">
<path d="M16.359 14.016h3.375q0.281-1.313 0.281-2.016t-0.281-2.016h-3.375q0.141 0.984 0.141 2.016t-0.141 2.016zM14.578 19.547q1.172-0.375 2.438-1.43t1.922-2.133h-2.953q-0.469 1.875-1.406 3.563zM14.344 14.016q0.141-0.984 0.141-2.016t-0.141-2.016h-4.688q-0.141 0.984-0.141 2.016t0.141 2.016h4.688zM12 19.969q1.313-1.922 1.922-3.984h-3.844q0.609 2.063 1.922 3.984zM8.016 8.016q0.563-2.016 1.406-3.563-1.172 0.375-2.461 1.43t-1.898 2.133h2.953zM5.063 15.984q0.609 1.078 1.898 2.133t2.461 1.43q-0.938-1.688-1.406-3.563h-2.953zM4.266 14.016h3.375q-0.141-0.984-0.141-2.016t0.141-2.016h-3.375q-0.281 1.313-0.281 2.016t0.281 2.016zM12 4.031q-1.313 1.922-1.922 3.984h3.844q-0.609-2.063-1.922-3.984zM18.938 8.016q-0.656-1.078-1.922-2.133t-2.438-1.43q0.844 1.547 1.406 3.563h2.953zM12 2.016q4.125 0 7.055 2.93t2.93 7.055-2.93 7.055-7.055 2.93-7.055-2.93-2.93-7.055 2.93-7.055 7.055-2.93z"></path>
</symbol>
<symbol id="icon-notification" viewBox="0 0 32 32">
<path d="M16 3c-3.472 0-6.737 1.352-9.192 3.808s-3.808 5.72-3.808 9.192c0 3.472 1.352 6.737 3.808 9.192s5.72 3.808 9.192 3.808c3.472 0 6.737-1.352 9.192-3.808s3.808-5.72 3.808-9.192c0-3.472-1.352-6.737-3.808-9.192s-5.72-3.808-9.192-3.808zM16 0v0c8.837 0 16 7.163 16 16s-7.163 16-16 16c-8.837 0-16-7.163-16-16s7.163-16 16-16zM14 22h4v4h-4zM14 6h4v12h-4z"></path>
</symbol>
</defs>
</svg>
